HIERARCHY
ROOT Hips
{
	OFFSET 0.000000 0.000000 0.000000 
	CHANNELS 6 Xposition Yposition Zposition Zrotation Yrotation Xrotation
	JOINT LeftUpLeg
	{
		OFFSET 1.363060 -1.794630 0.839290 
		CHANNELS 3 Zrotation Yrotation Xrotation
		JOINT LeftLeg
		{
			OFFSET 2.448110 -6.726130 0.000000 
			CHANNELS 3 Zrotation Yrotation Xrotation
			JOINT LeftFoot
			{
				OFFSET 2.562200 -7.039590 0.000000 
				CHANNELS 3 Zrotation Yrotation Xrotation
				JOINT LeftToeBase
				{
					OFFSET 0.157640 -0.433110 2.322550 
					CHANNELS 3 Zrotation Yrotation Xrotation
					End Site
					{
						OFFSET 0.000000 0.000000 0.000000 
					}
				}
			}
		}
	}
	JOINT RightUpLeg
	{
		OFFSET -1.305520 -1.794630 0.839290 
		CHANNELS 3 Zrotation Yrotation Xrotation
		JOINT RightLeg
		{
			OFFSET -2.542530 -6.985550 0.000000 
			CHANNELS 3 Zrotation Yrotation Xrotation
			JOINT RightFoot
			{
				OFFSET -2.568260 -7.056230 0.000000 
				CHANNELS 3 Zrotation Yrotation Xrotation
				JOINT RightToeBase
				{
					OFFSET -0.164730 -0.452590 2.363150 
					CHANNELS 3 Zrotation Yrotation Xrotation
					End Site
					{
						OFFSET 0.000000 0.000000 0.000000 
					}
				}
			}
		}
	}
	JOINT Spine
	{
		OFFSET 0.028270 2.035590 -0.193380 
		CHANNELS 3 Zrotation Yrotation Xrotation
		JOINT Spine1
		{
			OFFSET 0.056720 2.048850 -0.042750 
			CHANNELS 3 Zrotation Yrotation Xrotation
			JOINT Neck1
			{
				OFFSET -0.054170 1.746240 0.172020 
				CHANNELS 3 Zrotation Yrotation Xrotation
				JOINT Head
				{
					OFFSET 0.104070 1.761360 -0.123970 
					CHANNELS 3 Zrotation Yrotation Xrotation
					End Site
					{
						OFFSET 0.000000 0.000000 0.000000 
					}
				}
			}
			JOINT LeftArm
			{
				OFFSET 3.362410 1.200890 -0.311210 
				CHANNELS 3 Zrotation Yrotation Xrotation
				JOINT LeftForeArm
				{
					OFFSET 4.983000 -0.000000 -0.000000 
					CHANNELS 3 Zrotation Yrotation Xrotation
					JOINT LeftHand
					{
						OFFSET 3.483560 -0.000000 -0.000000 
						CHANNELS 3 Zrotation Yrotation Xrotation
						JOINT LeftHandIndex1
						{
							OFFSET 0.715260 -0.000000 -0.000000 
							CHANNELS 3 Zrotation Yrotation Xrotation
							End Site
							{
								OFFSET 0.000000 0.000000 0.000000 
							}
						}
					}
				}
			}
			JOINT RightArm
			{
				OFFSET -3.136600 1.374050 -0.404650 
				CHANNELS 3 Zrotation Yrotation Xrotation
				JOINT RightForeArm
				{
					OFFSET -5.241900 -0.000000 -0.000000 
					CHANNELS 3 Zrotation Yrotation Xrotation
					JOINT RightHand
					{
						OFFSET -3.444170 -0.000000 -0.000000 
						CHANNELS 3 Zrotation Yrotation Xrotation
						JOINT RightHandIndex1
						{
							OFFSET -0.622530 -0.000000 -0.000000 
							CHANNELS 3 Zrotation Yrotation Xrotation
							End Site
							{
								OFFSET 0.000000 0.000000 0.000000 
							}
						}
					}
				}
			}
		}
	}
}
MOTION
Frames: 7
Frame Time: 0.041667
2.373298 18.634818 -5.509943 0.481229 -27.469642 10.252122 -0.393493 -7.720899 -24.357403 2.789971 12.149775 37.243341 2.514773 -6.854668 20.883641 2.566800 -9.958400 -28.842100 3.239981 5.634978 -28.182902 -3.152745 -12.284779 36.495201 -0.613877 -0.752029 14.060076 -0.136000 2.377000 -6.548700 0.477381 3.667522 -0.816839 -0.835253 2.259223 -3.695805 -3.744081 8.923800 9.618389 1.178300 2.915100 9.414700 -73.590270 -17.337211 28.912424 142.672705 -47.947537 -104.225798 0.790044 -0.608021 4.897943 -7.125000 0.000000 0.000000 70.288454 3.441718 43.732855 -136.438039 47.050966 -101.744374 0.733809 -0.520990 11.069054 7.125000 0.000000 0.000000 
2.247754 18.607916 -5.557022 0.403763 -26.849972 10.059807 -0.747366 -7.446427 -24.607412 2.464156 11.877408 36.373744 2.852292 -8.904091 20.966568 2.570500 -9.965000 -28.863300 3.226801 5.560413 -27.754845 -3.632099 -12.770625 38.342320 -0.534765 -0.747037 13.134192 -0.133200 2.352400 -6.480500 0.520009 3.551128 -0.860702 -0.747315 2.209397 -3.814991 -3.444758 8.697421 9.776632 1.243500 2.838400 9.435500 -73.435852 -17.618312 29.238531 142.577370 -47.998754 -104.164393 0.814307 -0.602561 5.136838 -7.125000 0.000000 0.000000 70.558337 3.413654 43.220301 -136.149182 47.222840 -101.546915 0.745861 -0.514484 10.856363 7.125000 0.000000 0.000000 
2.124962 18.568276 -5.594624 0.269678 -26.299628 9.895515 -1.085533 -7.170151 -24.736740 2.127757 11.566539 35.392814 3.145128 -10.814664 21.165228 2.532300 -9.896500 -28.642100 3.204887 5.517441 -27.249077 -4.080327 -13.193871 40.008022 -0.447522 -0.858357 12.367553 -0.170900 2.663400 -7.342900 0.568555 3.480667 -0.897916 -0.695155 2.182354 -3.868622 -3.208892 8.498639 9.985413 1.270700 2.770700 9.490100 -73.389198 -17.967719 29.683668 142.435659 -48.078500 -104.071085 0.826634 -0.604599 5.640139 -7.125000 0.000000 0.000000 70.958323 3.269434 42.698533 -135.919648 47.359784 -101.384213 0.770778 -0.509792 10.098134 7.125000 0.000000 0.000000 
2.001253 18.516510 -5.626519 0.045724 -25.800407 9.767350 -1.295810 -6.990407 -24.758258 1.801335 11.247720 34.394719 3.402483 -12.629907 21.589192 2.383800 -9.623500 -27.765900 3.251000 5.571163 -26.616672 -4.483920 -13.541513 41.437455 -0.297409 -1.290555 11.611421 -0.213200 2.972800 -8.203100 0.662820 3.427174 -0.885915 -0.552541 2.157055 -3.712367 -2.713682 8.194396 10.204866 1.458900 2.650300 9.540000 -73.508422 -18.316586 30.161276 142.342029 -48.124725 -104.001757 0.799617 -0.607514 6.465142 -7.125000 0.000000 0.000000 71.395354 3.075435 42.309227 -135.583308 47.566050 -101.122134 0.826170 -0.511945 8.595219 7.125000 0.000000 0.000000 
1.878054 18.451497 -5.660758 -0.118437 -25.079651 9.561204 -1.485080 -6.993886 -24.738068 1.502197 10.951761 33.483414 3.615048 -14.417398 22.170764 2.268800 -9.404800 -27.070100 3.349156 5.404418 -25.881005 -4.846249 -13.814563 42.599439 -0.004795 -2.398223 10.837211 -0.266100 3.318500 -9.166800 0.782246 3.278008 -0.950333 -0.325293 2.083858 -3.824369 -2.036649 7.775841 10.469391 1.753100 2.472000 9.589600 -73.789981 -18.338536 30.815209 142.131530 -48.271264 -103.843143 0.801544 -0.603016 8.514548 -7.125000 0.000000 0.000000 71.685126 2.697700 41.933665 -135.334831 47.718124 -100.930605 0.870696 -0.505751 7.118540 7.125000 0.000000 0.000000 
1.757198 18.373542 -5.694182 -0.381091 -24.178649 9.411660 -1.567454 -7.067118 -24.783283 1.264845 10.727587 32.782034 3.760679 -15.799145 23.056858 2.122800 -9.117300 -26.163000 3.620203 4.947478 -25.115686 -5.142050 -14.007150 43.460576 0.404555 -3.972173 9.863269 -0.251200 3.224900 -8.905500 0.894801 3.067030 -0.946735 -0.238903 1.981750 -3.732305 -1.625510 7.418402 10.483244 1.899200 2.337200 9.555800 -74.101266 -18.749912 31.230079 142.456331 -48.036040 -104.063788 0.794463 -0.606485 7.883398 -7.125000 0.000000 0.000000 71.886493 2.685536 41.347746 -135.269906 47.760607 -100.897280 0.878606 -0.491659 6.153596 7.125000 0.000000 0.000000 
1.635935 18.282849 -5.723733 -0.701672 -23.621904 9.299482 -1.643708 -7.022246 -24.795062 1.152828 10.641881 32.508367 3.825493 -16.446358 23.839391 1.793500 -8.421900 -24.003200 3.900827 4.635679 -24.290885 -5.339577 -14.106556 43.935062 0.924245 -5.921363 8.643982 -0.151100 2.504700 -6.902500 0.981966 3.024280 -0.958379 -0.205666 1.964181 -3.661399 -1.299059 7.121110 10.512172 1.968800 2.241900 9.525000 -74.403037 -19.176912 31.807384 142.619712 -47.916594 -104.170917 0.806633 -0.605132 7.012865 -7.125000 0.000000 0.000000 72.083365 2.547940 40.682870 -135.378908 47.704614 -100.990823 0.878916 -0.489486 5.582471 7.125000 0.000000 0.000000 
